<svg width="40" height="40" viewBox="0 0 40 40" fill="none" xmlns="http://www.w3.org/2000/svg">
<path d="M26.9835 3.33331H13.0168C6.95016 3.33331 3.3335 6.94998 3.3335 13.0166V26.9666C3.3335 33.05 6.95016 36.6666 13.0168 36.6666H26.9668C33.0335 36.6666 36.6502 33.05 36.6502 26.9833V13.0166C36.6668 6.94998 33.0502 3.33331 26.9835 3.33331ZM19.1668 28.75C19.1668 29.35 18.5668 29.75 18.0168 29.5166C16.0002 28.65 13.3668 27.85 11.5335 27.6166L11.2168 27.5833C10.2002 27.45 9.36683 26.5 9.36683 25.4666V12.6333C9.36683 11.35 10.4002 10.4 11.6668 10.5C13.7502 10.6666 16.8335 11.6666 18.7668 12.7666C19.0335 12.9166 19.1668 13.2 19.1668 13.4833V28.75ZM30.6335 25.45C30.6335 26.4833 29.8002 27.4333 28.7835 27.5666L28.4335 27.6C26.6168 27.85 24.0002 28.6333 21.9835 29.4833C21.4335 29.7166 20.8335 29.3166 20.8335 28.7166V13.4666C20.8335 13.1666 20.9835 12.8833 21.2502 12.7333C23.1835 11.65 26.2002 10.6833 28.2502 10.5H28.3168C29.6002 10.5 30.6335 11.5333 30.6335 12.8166V25.45Z" fill="#546FFF"/>
</svg>
